<svg width="100%" height="100%" viewBox="0 0 33 32" fill="none" xmlns="http://www.w3.org/2000/svg">
  <path
    d="M16.0697 3.77369C16.0697 1.68982 14.3654 0 12.2637 0H1.00018V8.64103C1.00018 12.1207 3.84523 14.9416 7.3547 14.9416H12.296C14.3798 14.9416 16.0697 13.2668 16.0697 11.1999C16.0697 9.3073 14.5219 7.77264 12.6131 7.77264C14.5219 7.77264 16.0697 5.66632 16.0697 3.77369ZM9.72478 10.5561H8.08158V9.7272H9.72478C9.9808 9.7272 10.1881 9.913 10.1881 10.1417C10.1881 10.3703 9.9808 10.5561 9.72478 10.5561ZM9.72478 5.21375H8.08158V4.38483H9.72478C9.9808 4.38483 10.1881 4.57062 10.1881 4.79929C10.1881 5.02796 9.9808 5.21375 9.72478 5.21375Z"
    fill="#ffffff"></path>
  <path
    d="M17.9202 6.04607V14.9416H22.3398C23.8292 14.9416 24.9817 13.7445 24.9817 12.2677V10.5568H25.9083V14.9416H27.7238C30.6313 14.9416 32.989 12.6046 32.989 9.72108V2.80898e-06H24.0173C20.6499 2.80898e-06 17.9195 2.70658 17.9195 6.04607H17.9202ZM24.9824 5.21443H25.909V7.30306H24.9824V5.21443Z"
    fill="#ffffff"></path>
  <path
    d="M9.13098 22.2721H12.5855C14.4944 22.2721 16.0422 20.8661 16.0422 18.9735V17.0584H7.32716C3.81769 17.0584 0.972643 19.8793 0.972643 23.359V32H16.0415V23.2303H12.5869C10.6781 23.2303 8.89692 24.8936 8.89692 26.7863H8.06091V22.2721H9.13029"
    fill="#ffffff"></path>
  <path
    d="M29.5323 21.4432C31.4411 21.4432 32.9889 19.9085 32.9889 18.0159V17.0584H24.2739C20.7645 17.0584 17.9194 19.8793 17.9194 23.359C17.9194 25.2516 19.4672 26.7863 21.376 26.7863H25.0667V27.6152H21.376C19.4672 27.6152 17.9194 29.1498 17.9194 31.0425V32H26.6344C30.1439 32 32.9889 29.1791 32.9889 25.6994C32.9889 23.8068 31.4411 22.2721 29.5323 22.2721H26.3139V21.4432H29.5323Z"
    fill="#ffffff"></path>
</svg>